<svg xmlns="http://www.w3.org/2000/svg">
  <symbol id="comment" width="16" height="16" viewBox="0 0 16 16">
    <path fill-rule="evenodd" clip-rule="evenodd" d="M3.99998 14.5362L8.05784 12H13.3333C14.0697 12 14.6666 11.4031 14.6666 10.6667V2.66671C14.6666 1.93033 14.0697 1.33337 13.3333 1.33337H2.66665C1.93027 1.33337 1.33331 1.93033 1.33331 2.66671V10.6667C1.33331 11.4031 1.93027 12 2.66665 12H3.99998V14.5362ZM7.67545 10.6667L5.33331 12.1305V10.6667H2.66665V2.66671H13.3333V10.6667H7.67545ZM4.66665 8.66671V7.33337H9.33331V8.66671H4.66665ZM4.66665 4.66671V6.00004H10.6666V4.66671H4.66665Z" fill="#9564AA"/>
  </symbol>
  <symbol id="eye" width="16" height="12" viewBox="0 0 16 12">
    <path fill-rule="evenodd" clip-rule="evenodd" d="M8.00002 0.666626C9.81838 0.666626 11.5571 1.62038 13.1775 3.18739C13.7304 3.72199 14.2305 4.29273 14.6707 4.86371C14.9364 5.20825 15.125 5.47929 15.2283 5.64076L15.458 5.99996L15.2283 6.35916C15.125 6.52063 14.9364 6.79167 14.6707 7.13621C14.2305 7.70719 13.7304 8.27793 13.1775 8.81253C11.5571 10.3795 9.81838 11.3333 8.00002 11.3333C6.18165 11.3333 4.4429 10.3795 2.82249 8.81253C2.26968 8.27793 1.76955 7.70719 1.32929 7.13621C1.06362 6.79167 0.874998 6.52063 0.771725 6.35916L0.541992 5.99996L0.771725 5.64076C0.874998 5.47929 1.06362 5.20825 1.32929 4.86371C1.76955 4.29273 2.26968 3.72199 2.82249 3.18739C4.4429 1.62038 6.18165 0.666626 8.00002 0.666626ZM13.6149 5.67788C13.2118 5.15511 12.7535 4.63209 12.2507 4.14586C10.855 2.79621 9.4034 1.99996 8.00002 1.99996C6.59663 1.99996 5.14501 2.79621 3.74938 4.14586C3.24657 4.63209 2.78827 5.15511 2.38518 5.67788C2.29812 5.79078 2.21767 5.89851 2.14413 5.99996C2.21767 6.10141 2.29812 6.20914 2.38518 6.32204C2.78827 6.84481 3.24657 7.36782 3.74938 7.85406C5.14501 9.20371 6.59663 9.99996 8.00002 9.99996C9.4034 9.99996 10.855 9.20371 12.2507 7.85406C12.7535 7.36782 13.2118 6.84481 13.6149 6.32204C13.7019 6.20914 13.7824 6.10141 13.8559 5.99996C13.7824 5.89851 13.7019 5.79078 13.6149 5.67788ZM5.33335 5.99996C5.33335 7.47272 6.52726 8.66663 8.00002 8.66663C9.47277 8.66663 10.6667 7.47272 10.6667 5.99996C10.6667 4.5272 9.47277 3.33329 8.00002 3.33329C6.52726 3.33329 5.33335 4.5272 5.33335 5.99996ZM9.33335 5.99996C9.33335 6.73634 8.73639 7.33329 8.00002 7.33329C7.26364 7.33329 6.66668 6.73634 6.66668 5.99996C6.66668 5.26358 7.26364 4.66663 8.00002 4.66663C8.73639 4.66663 9.33335 5.26358 9.33335 5.99996Z" fill="#9564AA"/>
  </symbol>
  <symbol id="gift" width="14" height="14" viewBox="0 0 14 14">
    <path fill-rule="evenodd" clip-rule="evenodd" d="M2.66467 3.66671C2.44587 3.30896 2.33331 2.86861 2.33331 2.33337C2.33331 1.2781 3.12688 0.333374 4.33331 0.333374C5.54131 0.333374 6.51549 1.14246 6.99998 2.40926C7.48447 1.14246 8.45865 0.333374 9.66665 0.333374C10.8731 0.333374 11.6666 1.2781 11.6666 2.33337C11.6666 2.86861 11.5541 3.30896 11.3353 3.66671H12.3333C13.0697 3.66671 13.6666 4.26366 13.6666 5.00004V6.33337C13.6666 7.06975 13.0697 7.66671 12.3333 7.66671V12.3334C12.3333 13.0698 11.7364 13.6667 11 13.6667H2.99998C2.2636 13.6667 1.66665 13.0698 1.66665 12.3334V7.66671C0.930267 7.66671 0.333313 7.06975 0.333313 6.33337V5.00004C0.333313 4.26366 0.930267 3.66671 1.66665 3.66671H2.66467ZM6.33331 5.00004H1.66665V6.33337H6.33331V5.00004ZM12.3333 6.33337H7.66665V5.00004H12.3333V6.33337ZM6.33331 12.3334V7.66671H2.99998V12.3334H6.33331ZM11 12.3334H7.66665V7.66671H11V12.3334ZM4.33331 1.66671C3.91974 1.66671 3.66665 1.96802 3.66665 2.33337C3.66665 3.16886 4.34465 3.56612 5.95293 3.6497C5.77418 2.40777 5.1081 1.66671 4.33331 1.66671ZM7.99998 3.6497C8.17872 2.40777 8.84481 1.66671 9.61959 1.66671C10.0332 1.66671 10.2863 1.96802 10.2863 2.33337C10.2863 3.16886 9.60826 3.56612 7.99998 3.6497Z" fill="#9564AA"/>
  </symbol>
  <symbol id="heart" width="16" height="14" viewBox="0 0 16 14">
    <path fill-rule="evenodd" clip-rule="evenodd" d="M11.0355 0.333385C10.0704 0.333374 9.44828 0.44835 8.73512 0.797422C8.47109 0.926661 8.22338 1.0823 7.99333 1.26388C7.77215 1.09248 7.53434 0.943986 7.28123 0.818797C6.55423 0.459224 5.90021 0.333374 4.96972 0.333374C2.47764 0.333374 0.666687 2.39822 0.666687 5.07996C0.666687 7.10521 1.79591 9.06156 3.89925 10.9533C5.00328 11.9463 6.4129 12.9289 7.42242 13.4517L8.00002 13.7508L8.57762 13.4517C9.58714 12.9289 10.9968 11.9463 12.1008 10.9533C14.2041 9.06156 15.3334 7.10521 15.3334 5.07996C15.3334 2.4266 13.5053 0.343613 11.0355 0.333385ZM14 5.07996C14 6.66664 13.0575 8.29959 11.2092 9.96195C10.2015 10.8683 8.906 11.774 8.00002 12.2492C7.09405 11.774 5.79857 10.8683 4.79087 9.96195C2.94257 8.29959 2.00002 6.66664 2.00002 5.07996C2.00002 3.09852 3.25578 1.66671 4.96972 1.66671C5.70954 1.66671 6.16544 1.75443 6.69011 2.01394C7.00002 2.16722 7.27394 2.36962 7.51104 2.62255L8.00158 3.14584L8.48765 2.61841C8.73009 2.35534 9.00803 2.14833 9.3213 1.99499C9.8306 1.7457 10.258 1.66671 11.0327 1.66671C12.7255 1.67373 14 3.12602 14 5.07996Z" fill="#9564AA"/>
  </symbol>
  <symbol id="steam" width="22" height="22" viewBox="0 0 22 22">
    <path fill-rule="evenodd" clip-rule="evenodd" d="M11 15C8.79086 15 7 13.2091 7 11C7 8.79086 8.79086 7 11 7C13.2091 7 15 8.79086 15 11C15 13.2091 13.2091 15 11 15ZM13 11C13 12.1046 12.1046 13 11 13C9.89543 13 9 12.1046 9 11C9 9.89543 9.89543 9 11 9C12.1046 9 13 9.89543 13 11Z" fill="#9564AA"/>
    <path fill-rule="evenodd" clip-rule="evenodd" d="M17.6562 19.897L19.8733 17.6798L19.0925 14.843L19.4327 14.0305L22 12.5818V9.44645L19.44 7.99173L19.1055 7.18067L19.8961 4.34235L17.6774 2.12683L14.8403 2.90748L14.0296 2.56758L12.5808 0H9.44544L7.99072 2.56004L7.17985 2.89446L4.34198 2.10281L2.1267 4.31809L2.90748 7.15567L2.56758 7.96634L0 9.41514V12.5496L2.55774 14.0076L2.89252 14.8193L2.10197 17.6572L4.31809 19.8733L7.15567 19.0925L7.96644 19.4325L9.41527 21.999H12.5498L14.0067 19.4412L14.8183 19.1065L17.6562 19.897ZM17.8527 12.6256L16.9809 14.7078L17.6362 17.0886L17.0678 17.657L14.692 16.9951L12.609 17.8542L11.3873 19.999H10.5829L9.37141 17.8529L7.29155 16.9808L4.90947 17.6362L4.34203 17.0688L5.00385 14.693L4.14482 12.6101L2 11.3876V10.583L4.1471 9.3715L5.0192 7.29155L4.36375 4.90947L4.93001 4.34321L7.30576 5.00595L9.38955 4.14655L10.6093 2H11.4129L12.6245 4.1471L14.7044 5.0192L17.087 4.36362L17.6558 4.93166L16.9941 7.30696L17.8534 9.39056L20 10.6103V11.4139L17.8527 12.6256Z" fill="#9564AA"/>
  </symbol>
  <symbol id="user" width="23" height="22" viewBox="0 0 23 22">
    <path fill-rule="evenodd" clip-rule="evenodd" d="M11.187 14C8.94788 14 7.18701 12.4274 7.18701 9C7.18701 6.75576 8.76611 5 11.187 5C13.6012 5 15.187 6.92158 15.187 9.2C15.187 12.4796 13.4051 14 11.187 14ZM9.18701 9C9.18701 11.2693 10.0052 12 11.187 12C12.3647 12 13.187 11.2984 13.187 9.2C13.187 7.95042 12.4027 7 11.187 7C9.92075 7 9.18701 7.81582 9.18701 9Z" fill="#9564AA"/>
    <path fill-rule="evenodd" clip-rule="evenodd" d="M11.187 22C5.11188 22 0.187012 17.0751 0.187012 11C0.187012 4.92487 5.11188 0 11.187 0C17.2621 0 22.187 4.92487 22.187 11C22.187 17.0751 17.2621 22 11.187 22ZM18.5865 16.1246C19.5956 14.6703 20.187 12.9042 20.187 11C20.187 6.02944 16.1576 2 11.187 2C6.21645 2 2.18701 6.02944 2.18701 11C2.18701 12.9042 2.77839 14.6703 3.78752 16.1246C4.91296 14.6381 7.55761 14 11.187 14C14.8164 14 17.4611 14.6381 18.5865 16.1246ZM17.1517 17.7398C16.859 16.6874 14.7564 16 11.187 16C7.61763 16 5.51502 16.6874 5.22233 17.7398C6.81031 19.1462 8.89895 20 11.187 20C13.4751 20 15.5637 19.1462 17.1517 17.7398Z" fill="#9564AA"/>
  </symbol>
  <symbol id="camera" width="23" height="18" viewBox="0 0 23 18">
    <path d="M19.187 7C19.187 7.55228 18.7393 8 18.187 8C17.6347 8 17.187 7.55228 17.187 7C17.187 6.44772 17.6347 6 18.187 6C18.7393 6 19.187 6.44772 19.187 7Z" fill="#9564AA"/>
    <path fill-rule="evenodd" clip-rule="evenodd" d="M6.18701 10C6.18701 12.7614 8.42559 15 11.187 15C13.9484 15 16.187 12.7614 16.187 10C16.187 7.23858 13.9484 5 11.187 5C8.42559 5 6.18701 7.23858 6.18701 10ZM14.187 10C14.187 11.6569 12.8439 13 11.187 13C9.53016 13 8.18701 11.6569 8.18701 10C8.18701 8.34315 9.53016 7 11.187 7C12.8439 7 14.187 8.34315 14.187 10Z" fill="#9564AA"/>
    <path fill-rule="evenodd" clip-rule="evenodd" d="M6.12403 2.84538C6.19488 2.74688 6.27357 2.62631 6.37391 2.46372C6.41056 2.40433 6.5105 2.23944 6.58493 2.11665L6.66881 1.97841C7.4978 0.622387 8.10041 0 9.18701 0H13.187C14.2736 0 14.8762 0.622387 15.7052 1.97841L15.7891 2.11664C15.8635 2.23943 15.9635 2.40433 16.0001 2.46372C16.1005 2.62631 16.1791 2.74688 16.25 2.84538C16.2967 2.91033 16.3375 2.96194 16.3708 3H19.187C20.8439 3 22.187 4.34315 22.187 6V15C22.187 16.6569 20.8439 18 19.187 18H3.18701C1.53016 18 0.187012 16.6569 0.187012 15V6C0.187012 4.34315 1.53016 3 3.18701 3H6.00321C6.0365 2.96194 6.07731 2.91033 6.12403 2.84538ZM3.18701 5C2.63473 5 2.18701 5.44772 2.18701 6V15C2.18701 15.5523 2.63473 16 3.18701 16H19.187C19.7393 16 20.187 15.5523 20.187 15V6C20.187 5.44772 19.7393 5 19.187 5H16.187C15.5227 5 15.0746 4.63641 14.6264 4.01326C14.5233 3.86988 14.4211 3.71332 14.2981 3.51409C14.256 3.44583 14.1466 3.26536 14.0716 3.14152L13.9988 3.02159C13.5465 2.28172 13.2737 2 13.187 2H9.18701C9.10028 2 8.82751 2.28172 8.37521 3.02159L8.30244 3.14152C8.2274 3.26534 8.11793 3.44596 8.07588 3.51409C7.95293 3.71332 7.85076 3.86988 7.74763 4.01326C7.29938 4.63641 6.85135 5 6.18701 5H3.18701Z" fill="#9564AA"/>
  </symbol>
  <symbol id="log" width="21" height="21" viewBox="0 0 21 21">
    <path d="M7.4799 6.51033L10.7728 9.80322L0.187011 9.80322L0.187011 11.8032L10.7728 11.8032L7.4799 15.0961L8.89412 16.5103L14.6012 10.8032L8.89412 5.09612L7.4799 6.51033Z" fill="#9564AA"/>
    <path d="M18.187 0.803222L14.187 0.803222L14.187 2.80322L18.187 2.80322L18.187 18.8032L14.187 18.8032L14.187 20.8032L18.187 20.8032C19.2916 20.8032 20.187 19.9078 20.187 18.8032L20.187 2.80322C20.187 1.69865 19.2916 0.803222 18.187 0.803222Z" fill="#9564AA"/>
  </symbol>
</svg>